# xmcd
#
# Track frame offsets: 
#        150
#        38468
#        64583
#        85716
#        111083
#        132921
#        148293
#        169300
#        203146
#        224476
#        243004
#        265177
#        281809
#        303892
#        323672
#
# Disc length: 4615 seconds
#
# Revision: 1
# Processed by: cddbd v1.5.2PL0 Copyright (c) Steve Scherf et al.
# Submitted via: ExactAudioCopy v0.95b2
#
DISCID=d612050f
DTITLE=Curtis Mayfield - We Come In Peace With A Message Of Love - Tak
DTITLE=e It To The Streets
DYEAR=2009
DGENRE=R&B
TTITLE0=We Got To Have Peace
TTITLE1=Baby, It's You
TTITLE2=Body Guard
TTITLE3=Breakin' In The Streets
TTITLE4=Everybody Needs A Friend
TTITLE5=This Love Is True
TTITLE6=We Got To Have Peace ('85 version)
TTITLE7=Homeless
TTITLE8=Got To Be Real
TTITLE9=Do Be Down
TTITLE10=Who Was That Lady?
TTITLE11=On And On
TTITLE12=He's A Fly Guy
TTITLE13=Don't Push
TTITLE14=I Mo Git U Sucka
EXTD=We come in peace Tracks 1 to 7 originally released in 1985 on Cur
EXTD=tom Recordings\nTake it to the streets Tracks 8 to 15 originally 
EXTD=released in 1990 on Curtom Records
EXTT0=
EXTT1=
EXTT2=
EXTT3=
EXTT4=
EXTT5=
EXTT6=
EXTT7=
EXTT8=
EXTT9=
EXTT10=
EXTT11=
EXTT12=
EXTT13=
EXTT14=
PLAYORDER=
